<mxfile host="app.diagrams.net" modified="2024-03-11T01:46:11.559Z" agent="Mozilla/5.0 (Windows NT 10.0; Win64; x64; rv:109.0) Gecko/20100101 Firefox/115.0" etag="uJAUjv0NF2xjCEbUHdu6" version="23.1.1" type="github">
  <diagram name="第 1 页" id="Jlxba5Tiglko1fCMD5mD">
    <mxGraphModel dx="1195" dy="628" grid="1" gridSize="10" guides="1" tooltips="1" connect="1" arrows="1" fold="1" page="1" pageScale="1" pageWidth="1169" pageHeight="827" math="0" shadow="0">
      <root>
        <mxCell id="0" />
        <mxCell id="1" parent="0" />
        <mxCell id="qooLItGGZ6lpS-9ja9J2-20" value="" style="rounded=0;whiteSpace=wrap;html=1;hachureGap=4;fontFamily=Times New Roman;fontSize=20;labelBackgroundColor=none;fillColor=none;strokeColor=none;" vertex="1" parent="1">
          <mxGeometry x="40" y="172" width="720" height="290" as="geometry" />
        </mxCell>
        <mxCell id="qooLItGGZ6lpS-9ja9J2-1" value="&lt;div&gt;BASE&lt;/div&gt;" style="html=1;whiteSpace=wrap;hachureGap=4;fontFamily=Times New Roman;fontSize=16;labelBackgroundColor=none;fillColor=#FAE5C7;strokeColor=#0F8B8D;fontColor=#143642;" vertex="1" parent="1">
          <mxGeometry x="335" y="200" width="110" height="50" as="geometry" />
        </mxCell>
        <mxCell id="qooLItGGZ6lpS-9ja9J2-18" style="edgeStyle=orthogonalEdgeStyle;rounded=0;hachureGap=4;orthogonalLoop=1;jettySize=auto;html=1;fontFamily=Times New Roman;fontSize=16;labelBackgroundColor=none;strokeColor=#A8201A;fontColor=default;" edge="1" parent="1" source="qooLItGGZ6lpS-9ja9J2-2" target="qooLItGGZ6lpS-9ja9J2-1">
          <mxGeometry relative="1" as="geometry" />
        </mxCell>
        <mxCell id="qooLItGGZ6lpS-9ja9J2-2" value="ContextA" style="html=1;whiteSpace=wrap;hachureGap=4;fontFamily=Times New Roman;fontSize=16;labelBackgroundColor=none;fillColor=#FAE5C7;strokeColor=#0F8B8D;fontColor=#143642;" vertex="1" parent="1">
          <mxGeometry x="250" y="292" width="110" height="50" as="geometry" />
        </mxCell>
        <mxCell id="qooLItGGZ6lpS-9ja9J2-19" style="edgeStyle=orthogonalEdgeStyle;rounded=0;hachureGap=4;orthogonalLoop=1;jettySize=auto;html=1;entryX=0.5;entryY=1;entryDx=0;entryDy=0;fontFamily=Times New Roman;fontSize=16;labelBackgroundColor=none;strokeColor=#A8201A;fontColor=default;" edge="1" parent="1" source="qooLItGGZ6lpS-9ja9J2-3" target="qooLItGGZ6lpS-9ja9J2-1">
          <mxGeometry relative="1" as="geometry" />
        </mxCell>
        <mxCell id="qooLItGGZ6lpS-9ja9J2-3" value="ContextB" style="html=1;whiteSpace=wrap;hachureGap=4;fontFamily=Times New Roman;fontSize=16;labelBackgroundColor=none;fillColor=#FAE5C7;strokeColor=#0F8B8D;fontColor=#143642;" vertex="1" parent="1">
          <mxGeometry x="420" y="292" width="110" height="50" as="geometry" />
        </mxCell>
        <mxCell id="qooLItGGZ6lpS-9ja9J2-31" style="edgeStyle=orthogonalEdgeStyle;rounded=0;hachureGap=4;orthogonalLoop=1;jettySize=auto;html=1;fontFamily=Architects Daughter;fontSource=https%3A%2F%2Ffonts.googleapis.com%2Fcss%3Ffamily%3DArchitects%2BDaughter;fontSize=16;entryX=0.5;entryY=1;entryDx=0;entryDy=0;labelBackgroundColor=none;strokeColor=#A8201A;fontColor=default;" edge="1" parent="1" source="qooLItGGZ6lpS-9ja9J2-21" target="qooLItGGZ6lpS-9ja9J2-2">
          <mxGeometry relative="1" as="geometry">
            <mxPoint x="300" y="350" as="targetPoint" />
            <Array as="points">
              <mxPoint x="265" y="370" />
              <mxPoint x="305" y="370" />
            </Array>
          </mxGeometry>
        </mxCell>
        <mxCell id="qooLItGGZ6lpS-9ja9J2-21" value="…" style="html=1;whiteSpace=wrap;hachureGap=4;fontFamily=Times New Roman;fontSize=20;labelBackgroundColor=none;fillColor=#FAE5C7;strokeColor=#0F8B8D;fontColor=#143642;" vertex="1" parent="1">
          <mxGeometry x="228" y="388" width="70" height="50" as="geometry" />
        </mxCell>
        <mxCell id="qooLItGGZ6lpS-9ja9J2-28" style="edgeStyle=orthogonalEdgeStyle;rounded=0;hachureGap=4;orthogonalLoop=1;jettySize=auto;html=1;fontFamily=Architects Daughter;fontSource=https%3A%2F%2Ffonts.googleapis.com%2Fcss%3Ffamily%3DArchitects%2BDaughter;fontSize=16;labelBackgroundColor=none;strokeColor=#A8201A;fontColor=default;" edge="1" parent="1" source="qooLItGGZ6lpS-9ja9J2-22" target="qooLItGGZ6lpS-9ja9J2-2">
          <mxGeometry relative="1" as="geometry">
            <Array as="points">
              <mxPoint x="345" y="370" />
              <mxPoint x="305" y="370" />
            </Array>
          </mxGeometry>
        </mxCell>
        <mxCell id="qooLItGGZ6lpS-9ja9J2-22" value="…" style="html=1;whiteSpace=wrap;hachureGap=4;fontFamily=Times New Roman;fontSize=20;labelBackgroundColor=none;fillColor=#FAE5C7;strokeColor=#0F8B8D;fontColor=#143642;" vertex="1" parent="1">
          <mxGeometry x="312" y="388" width="70" height="50" as="geometry" />
        </mxCell>
        <mxCell id="qooLItGGZ6lpS-9ja9J2-29" style="edgeStyle=orthogonalEdgeStyle;rounded=0;hachureGap=4;orthogonalLoop=1;jettySize=auto;html=1;fontFamily=Architects Daughter;fontSource=https%3A%2F%2Ffonts.googleapis.com%2Fcss%3Ffamily%3DArchitects%2BDaughter;fontSize=16;labelBackgroundColor=none;strokeColor=#A8201A;fontColor=default;" edge="1" parent="1" source="qooLItGGZ6lpS-9ja9J2-23" target="qooLItGGZ6lpS-9ja9J2-3">
          <mxGeometry relative="1" as="geometry">
            <Array as="points">
              <mxPoint x="435" y="370" />
              <mxPoint x="475" y="370" />
            </Array>
          </mxGeometry>
        </mxCell>
        <mxCell id="qooLItGGZ6lpS-9ja9J2-23" value="…" style="html=1;whiteSpace=wrap;hachureGap=4;fontFamily=Times New Roman;fontSize=20;labelBackgroundColor=none;fillColor=#FAE5C7;strokeColor=#0F8B8D;fontColor=#143642;" vertex="1" parent="1">
          <mxGeometry x="402" y="388" width="70" height="50" as="geometry" />
        </mxCell>
        <mxCell id="qooLItGGZ6lpS-9ja9J2-30" style="edgeStyle=orthogonalEdgeStyle;rounded=0;hachureGap=4;orthogonalLoop=1;jettySize=auto;html=1;fontFamily=Architects Daughter;fontSource=https%3A%2F%2Ffonts.googleapis.com%2Fcss%3Ffamily%3DArchitects%2BDaughter;fontSize=16;labelBackgroundColor=none;strokeColor=#A8201A;fontColor=default;" edge="1" parent="1" source="qooLItGGZ6lpS-9ja9J2-24" target="qooLItGGZ6lpS-9ja9J2-3">
          <mxGeometry relative="1" as="geometry">
            <Array as="points">
              <mxPoint x="520" y="370" />
              <mxPoint x="475" y="370" />
            </Array>
          </mxGeometry>
        </mxCell>
        <mxCell id="qooLItGGZ6lpS-9ja9J2-24" value="…" style="html=1;whiteSpace=wrap;hachureGap=4;fontFamily=Times New Roman;fontSize=20;labelBackgroundColor=none;fillColor=#FAE5C7;strokeColor=#0F8B8D;fontColor=#143642;" vertex="1" parent="1">
          <mxGeometry x="485" y="388" width="70" height="50" as="geometry" />
        </mxCell>
      </root>
    </mxGraphModel>
  </diagram>
</mxfile>
